<?xml version="1.0" encoding="UTF-8" standalone="no"?>
<svg
   xmlns:dc="http://purl.org/dc/elements/1.1/"
   xmlns:cc="http://creativecommons.org/ns#"
   xmlns:rdf="http://www.w3.org/1999/02/22-rdf-syntax-ns#"
   xmlns:svg="http://www.w3.org/2000/svg"
   xmlns="http://www.w3.org/2000/svg"
   width="100"
   height="100"
   viewBox="0 0 100 100"
   version="1.1"
   id="svg162">
  <defs
     id="defs156">
    <symbol
       id="Reload-Hover">
      <path
         id="path880"
         style="fill:#0e7abf;fill-opacity:1;fill-rule:nonzero;stroke:none;stroke-width:2.09402"
         d="m 49.998955,91.665771 c -22.975605,0 -41.6647451,-18.6912 -41.6647451,-41.666835 0,-22.975597 18.6891401,-41.6647186 41.6647451,-41.6647186 22.975601,0 41.666843,18.6891216 41.666843,41.6647186 0,22.975635 -18.691242,41.666835 -41.666843,41.666835 M 49.998955,0 C 22.429066,0 0,22.429058 0,49.998936 0,77.568814 22.429066,100.00001 49.998955,100.00001 77.570938,100.00001 100,77.568814 100,49.998936 100,22.429058 77.570938,0 49.998955,0" />
      <path
         id="path884"
         style="fill:#5ec5c4;fill-opacity:1;fill-rule:nonzero;stroke:none;stroke-width:2.09402"
         d="m 49.998955,22.91571 c -10.767458,0 -20.420901,6.430716 -24.719921,16.038124 l -2.619621,-0.615647 c -1.635435,-0.38109 -3.350438,0.257763 -4.334627,1.627048 -0.984192,1.367358 -1.044922,3.193399 -0.154998,4.627805 l 4.665487,7.521714 c 0.787351,1.271054 2.150562,1.968378 3.545182,1.968378 0.743376,0 1.501409,-0.202961 2.184064,-0.624038 l 7.50497,-4.646589 c 1.430218,-0.887887 2.188251,-2.548423 1.916031,-4.209033 -0.268081,-1.660537 -1.511886,-2.99864 -3.147314,-3.388082 l -1.241756,-0.295181 c 3.249921,-5.850672 9.494293,-9.670186 16.402473,-9.670186 10.338183,0 18.749866,8.411678 18.749866,18.749858 0,10.340296 -8.411683,18.749821 -18.749866,18.749821 -2.299238,0 -4.16501,1.865801 -4.16501,4.165039 0,2.301317 1.865772,4.169197 4.16501,4.169197 14.934561,0 27.086166,-12.151597 27.086166,-27.084057 0,-14.934577 -12.151605,-27.084095 -27.086166,-27.084095" />
      <path
         id="path888"
         style="fill:none;stroke:#0e7abf;stroke-width:4.18805;stroke-linecap:butt;stroke-linejoin:miter;stroke-miterlimit:10;stroke-dasharray:none;stroke-opacity:1"
         d="m 49.998955,22.91571 c -10.767458,0 -20.420901,6.430716 -24.719921,16.038124 l -2.619621,-0.615647 c -1.635435,-0.38109 -3.350438,0.257763 -4.334627,1.627048 -0.984192,1.367358 -1.044922,3.193399 -0.154998,4.627805 l 4.665487,7.521714 c 0.787351,1.271054 2.150562,1.968378 3.545182,1.968378 0.743376,0 1.501409,-0.202961 2.184064,-0.624038 l 7.50497,-4.646589 c 1.430218,-0.887887 2.188251,-2.548423 1.916031,-4.209033 -0.268081,-1.660537 -1.511886,-2.99864 -3.147314,-3.388082 l -1.241756,-0.295181 c 3.249921,-5.850672 9.494293,-9.670186 16.402473,-9.670186 10.338183,0 18.749866,8.411678 18.749866,18.749858 0,10.340296 -8.411683,18.749821 -18.749866,18.749821 -2.299238,0 -4.16501,1.865801 -4.16501,4.165039 0,2.301317 1.865772,4.169197 4.16501,4.169197 14.934561,0 27.086166,-12.151597 27.086166,-27.084057 0,-14.934577 -12.151605,-27.084095 -27.086166,-27.084095 z" />
      <path
         id="path892"
         style="fill:#5ec5c4;fill-opacity:1;fill-rule:nonzero;stroke:none;stroke-width:2.09402"
         d="m 39.545391,65.590583 c -2.043766,-1.3841 -3.758768,-3.109568 -5.096849,-5.124094 -1.27107,-1.920152 -3.855095,-2.445771 -5.773217,-1.168403 -1.916031,1.271055 -2.439533,3.857159 -1.168464,5.771112 1.941159,2.925354 4.418386,5.421392 7.362584,7.41702 0.716153,0.485556 1.52863,0.720303 2.33483,0.720303 1.335988,0 2.646845,-0.642823 3.45095,-1.830123 1.292005,-1.903484 0.79363,-4.493745 -1.109834,-5.785815" />
      <path
         id="path896"
         style="fill:none;stroke:#0e7abf;stroke-width:4.18805;stroke-linecap:butt;stroke-linejoin:miter;stroke-miterlimit:10;stroke-dasharray:none;stroke-opacity:1"
         d="m 39.545391,65.590583 c -2.043766,-1.3841 -3.758768,-3.109568 -5.096849,-5.124094 -1.27107,-1.920152 -3.855095,-2.445771 -5.773217,-1.168403 -1.916031,1.271055 -2.439533,3.857159 -1.168464,5.771112 1.941159,2.925354 4.418386,5.421392 7.362584,7.41702 0.716153,0.485556 1.52863,0.720303 2.33483,0.720303 1.335988,0 2.646845,-0.642823 3.45095,-1.830123 1.292005,-1.903484 0.79363,-4.493745 -1.109834,-5.785815 z" />
    </symbol>
    <symbol
       id="Arrow-Hover">
      <path
         d="m 65.25776,4.2104324e-7 c 4.228012,0 8.236141,1.56011277895676 11.364744,4.43951597895676 3.302414,3.0427441 5.224809,7.1869916 5.411185,11.6746726 0.184281,4.485588 -1.388397,8.774329 -4.429046,12.078837 L 57.526298,49.999012 77.604643,71.811281 c 3.040649,3.304509 4.613327,7.589061 4.429046,12.078837 -0.186376,4.483493 -2.108771,8.631928 -5.411185,11.672579 -3.30451,3.034367 -7.549274,4.607043 -12.078837,4.422763 -4.483493,-0.184281 -8.631929,-2.102486 -11.672579,-5.404902 L 22.380819,61.455898 C 19.673133,58.50739 18.100455,54.68354 17.958055,50.673316 c 0,-0.06491 -0.0063,-0.49421 -0.0063,-0.557033 v -0.232447 c 0,-0.08586 0.0063,-0.529809 0.01052,-0.617763 0.138211,-3.947401 1.710889,-7.77753 4.422764,-10.71557 L 52.871088,5.4258431 C 55.911738,2.1234283 60.055987,0.19893999 64.543667,0.01465867 64.782396,0.00413577 65.01903,5.2250261e-5 65.25776,5.2250261e-5"
         style="fill:#0e7abf;fill-opacity:1;fill-rule:nonzero;stroke:none;stroke-width:2.0941"
         id="path1070" />
      <path
         d="m 65.248536,92.440446 c 2.324464,0 4.529564,-0.858586 6.250924,-2.445923 1.821874,-1.669008 2.877307,-3.953682 2.97992,-6.420546 0.100517,-2.468958 -0.766445,-4.826928 -2.435453,-6.644617 L 49.607614,52.558087 c -1.327667,-1.449126 -1.327667,-3.673072 0,-5.122197 L 72.037645,23.068805 C 73.712935,21.251116 74.579897,18.888958 74.47938,16.42 74.376773,13.953136 73.317147,11.674743 71.49946,9.9994535 69.681769,8.3241637 67.300764,7.4907083 64.856935,7.564001 62.387977,7.6645185 60.103303,8.7262332 58.434295,10.543923 L 27.946123,43.668584 c -1.491009,1.612464 -2.353783,3.717046 -2.433359,5.922145 V 49.996988 50.242 c 0.07958,2.366347 0.94235,4.468833 2.433359,6.089677 l 30.488172,33.122566 c 1.669008,1.817688 3.953682,2.875216 6.42264,2.977827 0.127734,0.0042 0.257577,0.0083 0.391601,0.0083"
         style="fill:#5ec5c4;fill-opacity:1;fill-rule:nonzero;stroke:none;stroke-width:2.0941"
         id="path1072" />
    </symbol>
    <symbol
       id="Reload-Normal">
      <path
         d="m 49.998952,91.665794 c -22.975604,0 -41.6647457,-18.691237 -41.6647457,-41.664746 0,-22.9777 18.6891417,-41.6668408 41.6647457,-41.6668408 22.975605,0 41.666841,18.6891408 41.666841,41.6668408 0,22.973509 -18.691236,41.664746 -41.666841,41.664746 m 0,-91.66579326315039 C 22.429065,7.3684961e-7 -1.41952e-7,22.429066 -1.41952e-7,50.001048 -1.41952e-7,77.56884 22.429065,100 49.998952,100 77.570934,100 99.999999,77.56884 99.999999,50.001048 99.999999,22.429066 77.570934,7.3684961e-7 49.998952,7.3684961e-7"
         style="fill:#304159;fill-opacity:1;fill-rule:nonzero;stroke:none;stroke-width:2.09402"
         id="path843" />
      <path
         d="m 49.998952,22.915926 c -10.767459,0 -20.420898,6.43074 -24.719923,16.038111 l -2.619621,-0.615642 c -1.635432,-0.379019 -3.350436,0.257564 -4.334625,1.627054 -0.984191,1.367396 -1.044918,3.193383 -0.154963,4.627787 l 4.665485,7.521727 c 0.787352,1.27107 2.15056,1.96838 3.545178,1.96838 0.743378,0 1.501414,-0.203122 2.184066,-0.62402 l 7.504972,-4.646633 c 1.430217,-0.887864 2.188252,-2.548425 1.91603,-4.208983 -0.268036,-1.660559 -1.511884,-2.998639 -3.147315,-3.388127 l -1.241755,-0.295257 c 3.249922,-5.850697 9.494295,-9.670191 16.402471,-9.670191 10.338185,0 18.74987,8.411683 18.74987,18.749868 0,10.340279 -8.411685,18.749869 -18.74987,18.749869 -2.299236,0 -4.165009,1.865773 -4.165009,4.167104 0,2.299234 1.865773,4.167102 4.165009,4.167102 14.934562,0 27.086168,-12.151607 27.086168,-27.084075 0,-14.934561 -12.151606,-27.084074 -27.086168,-27.084074"
         style="fill:#5ec5c4;fill-opacity:1;fill-rule:nonzero;stroke:none;stroke-width:2.09402"
         id="path847" />
      <path
         d="m 49.998952,22.915926 c -10.767459,0 -20.420898,6.43074 -24.719923,16.038111 l -2.619621,-0.615642 c -1.635432,-0.379019 -3.350436,0.257564 -4.334625,1.627054 -0.984191,1.367396 -1.044918,3.193383 -0.154963,4.627787 l 4.665485,7.521727 c 0.787352,1.27107 2.15056,1.96838 3.545178,1.96838 0.743378,0 1.501414,-0.203122 2.184066,-0.62402 l 7.504972,-4.646633 c 1.430217,-0.887864 2.188252,-2.548425 1.91603,-4.208983 -0.268036,-1.660559 -1.511884,-2.998639 -3.147315,-3.388127 l -1.241755,-0.295257 c 3.249922,-5.850697 9.494295,-9.670191 16.402471,-9.670191 10.338185,0 18.74987,8.411683 18.74987,18.749868 0,10.340279 -8.411685,18.749869 -18.74987,18.749869 -2.299236,0 -4.165009,1.865773 -4.165009,4.167104 0,2.299234 1.865773,4.167102 4.165009,4.167102 14.934562,0 27.086168,-12.151607 27.086168,-27.084075 0,-14.934561 -12.151606,-27.084074 -27.086168,-27.084074 z"
         style="fill:none;stroke:#304159;stroke-width:4.18805;stroke-linecap:butt;stroke-linejoin:miter;stroke-miterlimit:10;stroke-dasharray:none;stroke-opacity:1"
         id="path851" />
      <path
         d="m 39.545387,65.591875 c -2.043764,-1.386241 -3.758768,-3.111716 -5.096848,-5.126165 -1.271072,-1.920217 -3.855094,-2.445817 -5.773217,-1.168464 -1.91603,1.271072 -2.439535,3.859283 -1.168464,5.773217 1.941158,2.925349 4.418385,5.421422 7.36258,7.417025 0.716155,0.485813 1.528635,0.718249 2.334833,0.718249 1.335986,0 2.646844,-0.64077 3.450948,-1.82808 1.292011,-1.903466 0.793634,-4.49377 -1.109832,-5.785782"
         style="fill:#5ec5c4;fill-opacity:1;fill-rule:nonzero;stroke:none;stroke-width:2.09402"
         id="path855" />
      <path
         d="m 39.545387,65.591875 c -2.043764,-1.386241 -3.758768,-3.111716 -5.096848,-5.126165 -1.271072,-1.920217 -3.855094,-2.445817 -5.773217,-1.168464 -1.91603,1.271072 -2.439535,3.859283 -1.168464,5.773217 1.941158,2.925349 4.418385,5.421422 7.36258,7.417025 0.716155,0.485813 1.528635,0.718249 2.334833,0.718249 1.335986,0 2.646844,-0.64077 3.450948,-1.82808 1.292011,-1.903466 0.793634,-4.49377 -1.109832,-5.785782 z"
         style="fill:none;stroke:#304159;stroke-width:4.18805;stroke-linecap:butt;stroke-linejoin:miter;stroke-miterlimit:10;stroke-dasharray:none;stroke-opacity:1"
         id="path859" />
    </symbol>
    <symbol
       id="Arrow-Normal">
      <path
         d="m 65.257761,1.4109943e-7 c 4.228012,0 8.236143,1.56010805890057 11.364746,4.43952235890057 3.302415,3.0448281 5.224809,7.1869915 5.411184,11.6746675 0.184283,4.485589 -1.388397,8.776423 -4.429046,12.078843 L 57.526301,49.99902 77.604645,71.811289 c 3.040649,3.304508 4.613329,7.59115 4.429046,12.078827 -0.186375,4.483498 -2.108769,8.631929 -5.411184,11.672579 -3.304509,3.034368 -7.549272,4.607055 -12.078837,4.422764 -4.483494,-0.184276 -8.631929,-2.102477 -11.672579,-5.404897 L 22.380817,61.455895 c -2.707687,-2.948503 -4.28036,-6.772358 -4.422764,-10.782576 0,-0.06487 -0.0063,-0.494216 -0.0063,-0.55704 v -0.232446 c 0,-0.08591 0.0063,-0.529804 0.01099,-0.617757 0.138212,-3.947396 1.710884,-7.777531 4.422765,-10.715576 L 52.87161,5.4258492 C 55.912259,2.1234295 60.056505,0.198946 64.544189,0.01465368 64.782917,0.0036596 65.019551,5.1843332e-4 65.258281,5.1843332e-4"
         style="fill:#304159;fill-opacity:1;fill-rule:nonzero;stroke:none;stroke-width:2.0941"
         id="path114" />
      <path
         d="m 65.248538,92.440445 c 2.324464,0 4.529564,-0.858575 6.250924,-2.445916 1.821878,-1.669013 2.877309,-3.953678 2.979921,-6.420548 0.100516,-2.468958 -0.766445,-4.826923 -2.43545,-6.644622 L 49.607618,52.558091 c -1.327666,-1.449131 -1.327666,-3.673077 0,-5.122193 L 72.03765,23.068808 c 1.675288,-1.817685 2.542251,-4.179843 2.441733,-6.648801 C 74.376776,13.953139 73.317151,11.67474 71.499462,9.99946 69.681774,8.3241658 67.300768,7.490704 64.85694,7.5640032 62.387982,7.6645205 60.103306,8.7262353 58.434299,10.543919 L 27.94613,43.666496 c -1.491018,1.614562 -2.353787,3.719143 -2.433369,5.924243 v 0.406248 0.24501 c 0.07963,2.366352 0.942351,4.468846 2.433369,6.089689 l 30.488169,33.12465 c 1.669007,1.815595 3.953683,2.873133 6.422641,2.975738 0.127734,0.0047 0.257576,0.0079 0.391598,0.0079"
         style="fill:#5ec5c4;fill-opacity:1;fill-rule:nonzero;stroke:none;stroke-width:2.0941"
         id="path118" />
    </symbol>
    <symbol
       id="Stop-Normal">
      <path
         d="m 89.54643,63.933159 c 0,1.567139 -0.621856,3.070217 -1.729633,4.177995 L 68.111162,87.816788 c -1.107778,1.107778 -2.610856,1.729634 -4.177995,1.729634 H 36.065288 c -1.565576,0 -3.068654,-0.621856 -4.176432,-1.729634 L 12.183221,68.111154 c -1.107778,-1.107778 -1.729633,-2.610856 -1.729633,-4.177995 v -27.86788 c 0,-1.565576 0.621855,-3.068654 1.729633,-4.176432 L 31.888856,12.183213 c 1.107778,-1.107778 2.610856,-1.731196 4.176432,-1.731196 h 27.867879 c 1.567139,0 3.070217,0.623418 4.177995,1.731196 l 19.705635,19.705634 c 1.107777,1.107778 1.729633,2.610856 1.729633,4.176432 z M 94.329093,27.017124 72.981322,5.6724783 C 70.890763,3.5787936 68.051789,2.4038303 65.094069,2.4038303 h -30.18812 c -2.95772,0 -5.796694,1.1749633 -7.888816,3.268648 L 5.6709247,27.017124 C 3.5788025,29.110809 2.4038392,31.946658 2.4038392,34.905941 V 65.09406 c 0,2.959283 1.1749633,5.795132 3.2670855,7.888816 L 27.017133,94.327522 c 2.092122,2.093685 4.931096,3.268648 7.888816,3.268648 h 30.18812 c 2.95772,0 5.796694,-1.174963 7.887253,-3.268648 L 94.329093,72.982876 c 2.09056,-2.093684 3.267086,-4.929533 3.267086,-7.888816 V 34.905941 c 0,-2.959283 -1.176526,-5.795132 -3.267086,-7.888817 z"
         style="fill:none;stroke:#304159;stroke-width:4.80766;stroke-linecap:butt;stroke-linejoin:miter;stroke-miterlimit:10;stroke-dasharray:none;stroke-opacity:1"
         id="path334" />
      <path
         d="m 64.89969,18.889253 16.211994,16.210431 c 0.910909,0.912472 1.423393,2.148371 1.423393,3.437393 v 22.925846 c 0,1.289023 -0.512484,2.524921 -1.423393,3.43583 L 64.89969,81.11231 c -0.910909,0.910909 -2.14837,1.42183 -3.437393,1.42183 H 38.536451 c -1.289022,0 -2.524921,-0.512484 -3.43583,-1.42183 L 18.888627,64.898753 c -0.910909,-0.910909 -1.423393,-2.146807 -1.423393,-3.43583 V 38.537077 c 0,-1.289022 0.512484,-2.524921 1.423393,-3.437393 L 35.100621,18.889253 c 0.910909,-0.912472 2.146808,-1.423393 3.43583,-1.423393 h 22.925846 c 1.289023,0 2.526484,0.510921 3.437393,1.423393"
         style="fill:#ee4062;fill-opacity:1;fill-rule:nonzero;stroke:none;stroke-width:1.56245"
         id="path338" />
      <path
         d="m 64.89969,18.889253 16.211994,16.210431 c 0.910909,0.912472 1.423393,2.148371 1.423393,3.437393 v 22.925846 c 0,1.289023 -0.512484,2.524921 -1.423393,3.43583 L 64.89969,81.11231 c -0.910909,0.910909 -2.14837,1.42183 -3.437393,1.42183 H 38.536451 c -1.289022,0 -2.524921,-0.512484 -3.43583,-1.42183 L 18.888627,64.898753 c -0.910909,-0.910909 -1.423393,-2.146807 -1.423393,-3.43583 V 38.537077 c 0,-1.289022 0.512484,-2.524921 1.423393,-3.437393 L 35.100621,18.889253 c 0.910909,-0.912472 2.146808,-1.423393 3.43583,-1.423393 h 22.925846 c 1.289023,0 2.526484,0.510921 3.437393,1.423393 z"
         style="fill:none;stroke:#304159;stroke-width:3.5327;stroke-linecap:butt;stroke-linejoin:miter;stroke-miterlimit:10;stroke-dasharray:none;stroke-opacity:1"
         id="path342" />
      <path
         d="m 43.628774,63.014437 c -1.256211,0 -2.278054,-1.021842 -2.278054,-2.279615 V 41.544795 h -1.479641 c -1.256211,0 -2.278054,-1.023404 -2.278054,-2.279615 0,-1.257773 1.021843,-2.279618 2.278054,-2.279618 h 7.516953 c 1.25621,0 2.278053,1.021845 2.278053,2.279618 0,1.256211 -1.021843,2.279615 -2.278053,2.279615 h -1.481204 v 19.190027 c 0,1.257773 -1.021843,2.279615 -2.278054,2.279615"
         style="fill:#ffffff;fill-opacity:1;fill-rule:nonzero;stroke:none;stroke-width:1.56245"
         id="path346" />
      <path
         d="m 47.387751,36.103559 h -7.516953 c -1.743695,0 -3.160839,1.418706 -3.160839,3.160839 0,1.745258 1.417144,3.162401 3.160839,3.162401 h 0.596857 v 18.308803 c 0,1.742133 1.418705,3.160839 3.162401,3.160839 1.742133,0 3.160839,-1.418706 3.160839,-3.160839 V 42.426799 h 0.596856 c 1.743696,0 3.160839,-1.417143 3.160839,-3.162401 0,-1.742133 -1.417143,-3.160839 -3.160839,-3.160839 m 0,1.76557 c 0.771851,0 1.395269,0.62498 1.395269,1.395269 0,0.773413 -0.623418,1.396831 -1.395269,1.396831 h -2.362426 v 20.074373 c 0,0.770289 -0.624981,1.395269 -1.395269,1.395269 -0.771851,0 -1.396832,-0.62498 -1.396832,-1.395269 V 40.661229 h -2.362426 c -0.771851,0 -1.395269,-0.623418 -1.395269,-1.396831 0,-0.770289 0.623418,-1.395269 1.395269,-1.395269 h 7.516953"
         style="fill:#304159;fill-opacity:1;fill-rule:nonzero;stroke:none;stroke-width:1.56245"
         id="path350" />
      <path
         id="path352"
         style="fill:#ffffff;fill-opacity:1;fill-rule:nonzero;stroke:none;stroke-width:1.56245"
         d="m 72.560878,41.544803 h -2.960872 v 6.662273 h 2.960872 z m -5.238926,21.469645 c -1.256196,0 -2.278054,-1.021858 -2.278054,-2.279648 V 39.265155 c 0,-1.257745 1.021858,-2.279604 2.278054,-2.279604 h 5.656093 c 2.282748,0 4.140491,1.857743 4.140491,4.140491 v 7.498201 c 0,2.282748 -1.857743,4.142085 -4.140491,4.142085 H 69.600006 V 60.7348 c 0,1.25779 -1.021858,2.279648 -2.278054,2.279648" />
      <path
         id="path354"
         style="fill:#304159;fill-opacity:1;fill-rule:nonzero;stroke:none;stroke-width:1.56245"
         d="m 70.482793,42.425997 h 1.193703 v 4.898292 h -1.193703 z m 2.495252,-6.323233 h -5.656093 c -1.743696,0 -3.160842,1.420291 -3.160842,3.162392 v 21.469645 c 0,1.742145 1.417146,3.162435 3.160842,3.162435 1.743695,0 3.160841,-1.42029 3.160841,-3.162435 v -7.087279 h 2.495252 c 2.770204,0 5.023278,-2.25148 5.023278,-5.021684 v -7.499795 c 0,-2.768654 -2.253074,-5.023279 -5.023278,-5.023279 m -4.260827,12.9871 h 4.260827 c 0.257767,0 0.465576,-0.20772 0.465576,-0.464026 v -7.499795 c 0,-0.256439 -0.20772,-0.465621 -0.465576,-0.465621 h -4.260827 v 8.429442 m 4.260827,-11.221525 c 1.796799,0 3.257703,1.462455 3.257703,3.257704 v 7.499795 c 0,1.795249 -1.460904,3.256109 -3.257703,3.256109 h -4.260827 v 8.852854 c 0,0.770291 -0.623425,1.396861 -1.395266,1.396861 -0.770291,0 -1.395267,-0.62657 -1.395267,-1.396861 V 39.265156 c 0,-0.770291 0.624976,-1.396817 1.395267,-1.396817 h 5.656093" />
      <path
         id="path356"
         style="fill:#ffffff;fill-opacity:1;fill-rule:nonzero;stroke:none;stroke-width:1.56245"
         d="m 58.090995,41.544803 h -2.960828 v 16.911943 h 2.960828 z m -3.378039,21.469645 c -2.282705,0 -4.138897,-1.857786 -4.138897,-4.140491 V 41.126042 c 0,-2.282749 1.856192,-4.140491 4.138897,-4.140491 h 3.795206 c 2.282748,0 4.138941,1.857743 4.138941,4.140491 v 17.747915 c 0,2.282705 -1.856193,4.140491 -4.138941,4.140491 z" />
      <path
         id="path358"
         style="fill:#304159;fill-opacity:1;fill-rule:nonzero;stroke:none;stroke-width:1.56245"
         d="m 56.014504,42.425997 h 1.193703 v 15.146412 h -1.193703 z m 2.493658,-6.323233 h -3.795206 c -2.770204,0 -5.023279,2.254625 -5.023279,5.023279 v 17.747915 c 0,2.770204 2.253075,5.023278 5.023279,5.023278 h 3.795206 c 2.768654,0 5.021728,-2.253074 5.021728,-5.023278 V 41.126043 c 0,-2.768654 -2.253074,-5.023279 -5.021728,-5.023279 m -3.795206,23.238365 h 3.795206 c 0.256439,0 0.46562,-0.210821 0.46562,-0.467171 V 41.126043 c 0,-0.256439 -0.209491,-0.465621 -0.46562,-0.465621 h -3.795206 c -0.256439,0 -0.465576,0.209492 -0.465576,0.465621 v 17.747915 c 0,0.256439 0.209491,0.467171 0.465576,0.467171 m 3.795206,-21.47279 c 1.795249,0 3.256153,1.462455 3.256153,3.257704 v 17.747915 c 0,1.796799 -1.460904,3.257704 -3.256153,3.257704 h -3.795206 c -1.79525,0 -3.256109,-1.460905 -3.256109,-3.257704 V 41.126043 c 0,-1.795249 1.460859,-3.257704 3.256109,-3.257704 h 3.795206" />
      <path
         d="m 28.005846,63.014437 c -2.282741,0 -4.138933,-1.857754 -4.138933,-4.140496 v -4.067059 c 0,-1.257773 1.021843,-2.279616 2.278054,-2.279616 1.25621,0 2.279616,1.021843 2.279616,2.279616 v 3.649886 h 2.959282 v -5.963876 h -3.378019 c -2.282741,0 -4.138933,-1.857755 -4.138933,-4.140496 v -7.226338 c 0,-2.282741 1.856192,-4.140496 4.138933,-4.140496 h 3.795194 c 2.282741,0 4.140496,1.857755 4.140496,4.140496 v 4.093623 c 0,1.257773 -1.023406,2.279617 -2.279617,2.279617 -1.25621,0 -2.278054,-1.021844 -2.278054,-2.279617 v -3.674886 h -2.959282 v 6.390425 h 3.376457 c 2.282741,0 4.140496,1.856192 4.140496,4.138934 v 6.799787 c 0,2.282742 -1.857755,4.140496 -4.140496,4.140496 z"
         style="fill:#ffffff;fill-opacity:1;fill-rule:nonzero;stroke:none;stroke-width:1.56245"
         id="path362" />
      <path
         d="m 28.964104,53.376457 h 1.53589 v 4.198306 h -1.192151 v -2.767101 c 0,-0.515609 -0.123433,-1.001531 -0.343739,-1.431205 m 0.343739,-10.949658 h 1.192151 v 2.793663 c 0,0.682791 0.21718,1.314021 0.585919,1.831193 h -1.77807 z m 2.49211,-6.32324 h -3.793632 c -2.770226,0 -5.02328,2.254617 -5.02328,5.023281 v 7.226336 c 0,1.45933 0.626543,2.776476 1.621824,3.692073 -0.967157,0.54217 -1.621824,1.576513 -1.621824,2.762413 v 4.067061 c 0,2.770226 2.253054,5.021718 5.02328,5.021718 h 3.793632 c 2.770226,0 5.024843,-2.251492 5.024843,-5.021718 v -6.799788 c 0,-1.598387 -0.751539,-3.026468 -1.920253,-3.945189 1.12809,-0.48436 1.920253,-1.6062 1.920253,-2.909284 V 41.12684 c 0,-2.768664 -2.254617,-5.023281 -5.024843,-5.023281 m 0,1.76557 c 1.796819,0 3.257711,1.462454 3.257711,3.257711 v 4.093622 c 0,0.771851 -0.624981,1.396831 -1.395269,1.396831 -0.771851,0 -1.396832,-0.62498 -1.396832,-1.396831 V 41.12684 c 0,-0.256242 -0.207806,-0.465611 -0.46561,-0.465611 h -3.793632 c -0.256242,0 -0.46561,0.209369 -0.46561,0.465611 v 7.226336 c 0,0.256242 0.209368,0.465611 0.46561,0.465611 h 3.793632 c 1.796819,0 3.257711,1.460892 3.257711,3.256148 v 6.799788 c 0,1.796819 -1.460892,3.257711 -3.257711,3.257711 h -3.793632 c -1.795256,0 -3.256148,-1.460892 -3.256148,-3.257711 v -4.067061 c 0,-0.770288 0.623418,-1.396831 1.395269,-1.396831 0.770288,0 1.395269,0.626543 1.395269,1.396831 v 4.067061 c 0,0.256242 0.209368,0.46561 0.46561,0.46561 h 3.793632 c 0.257804,0 0.46561,-0.209368 0.46561,-0.46561 v -6.799788 c 0,-0.256242 -0.207806,-0.46561 -0.46561,-0.46561 h -3.793632 c -1.795256,0 -3.256148,-1.45933 -3.256148,-3.256149 V 41.12684 c 0,-1.795257 1.460892,-3.257711 3.256148,-3.257711 h 3.793632"
         style="fill:#304159;fill-opacity:1;fill-rule:nonzero;stroke:none;stroke-width:1.56245"
         id="path366" />
    </symbol>
    <symbol
       id="Stop-Hover">
      <path
         id="path330"
         style="fill:#ee4062;fill-opacity:1;fill-rule:nonzero;stroke:none;stroke-width:1.56245"
         d="m 89.546427,63.93314 c 0,1.567139 -0.621856,3.070217 -1.729633,4.177995 L 68.111159,87.816769 c -1.107778,1.107778 -2.610856,1.729634 -4.177995,1.729634 H 36.065285 c -1.565576,0 -3.068654,-0.621856 -4.176432,-1.729634 L 12.183218,68.111135 C 11.07544,67.003357 10.453585,65.500279 10.453585,63.93314 V 36.06526 c 0,-1.565576 0.621855,-3.068654 1.729633,-4.176432 L 31.888853,12.183194 c 1.107778,-1.107778 2.610856,-1.731196 4.176432,-1.731196 h 27.867879 c 1.567139,0 3.070217,0.623418 4.177995,1.731196 l 19.705635,19.705634 c 1.107777,1.107778 1.729633,2.610856 1.729633,4.176432 z M 94.32909,27.017105 72.981319,5.6724597 C 70.89076,3.578775 68.051786,2.4038117 65.094066,2.4038117 h -30.18812 c -2.95772,0 -5.796694,1.1749633 -7.888816,3.268648 L 5.6709217,27.017105 C 3.5787995,29.11079 2.4038362,31.946639 2.4038362,34.905922 v 30.188119 c 0,2.959283 1.1749633,5.795132 3.2670855,7.888816 L 27.01713,94.327503 c 2.092122,2.093685 4.931096,3.268648 7.888816,3.268648 h 30.18812 c 2.95772,0 5.796694,-1.174963 7.887253,-3.268648 L 94.32909,72.982857 c 2.09056,-2.093684 3.267086,-4.929533 3.267086,-7.888816 V 34.905922 c 0,-2.959283 -1.176526,-5.795132 -3.267086,-7.888817" />
      <path
         id="path334-0"
         style="fill:none;stroke:#304159;stroke-width:4.80766;stroke-linecap:butt;stroke-linejoin:miter;stroke-miterlimit:10;stroke-dasharray:none;stroke-opacity:1"
         d="m 89.546427,63.93314 c 0,1.567139 -0.621856,3.070217 -1.729633,4.177995 L 68.111159,87.816769 c -1.107778,1.107778 -2.610856,1.729634 -4.177995,1.729634 H 36.065285 c -1.565576,0 -3.068654,-0.621856 -4.176432,-1.729634 L 12.183218,68.111135 C 11.07544,67.003357 10.453585,65.500279 10.453585,63.93314 V 36.06526 c 0,-1.565576 0.621855,-3.068654 1.729633,-4.176432 L 31.888853,12.183194 c 1.107778,-1.107778 2.610856,-1.731196 4.176432,-1.731196 h 27.867879 c 1.567139,0 3.070217,0.623418 4.177995,1.731196 l 19.705635,19.705634 c 1.107777,1.107778 1.729633,2.610856 1.729633,4.176432 z M 94.32909,27.017105 72.981319,5.6724597 C 70.89076,3.578775 68.051786,2.4038117 65.094066,2.4038117 h -30.18812 c -2.95772,0 -5.796694,1.1749633 -7.888816,3.268648 L 5.6709217,27.017105 C 3.5787995,29.11079 2.4038362,31.946639 2.4038362,34.905922 v 30.188119 c 0,2.959283 1.1749633,5.795132 3.2670855,7.888816 L 27.01713,94.327503 c 2.092122,2.093685 4.931096,3.268648 7.888816,3.268648 h 30.18812 c 2.95772,0 5.796694,-1.174963 7.887253,-3.268648 L 94.32909,72.982857 c 2.09056,-2.093684 3.267086,-4.929533 3.267086,-7.888816 V 34.905922 c 0,-2.959283 -1.176526,-5.795132 -3.267086,-7.888817 z" />
      <path
         id="path338-0"
         style="fill:#ee4062;fill-opacity:1;fill-rule:nonzero;stroke:none;stroke-width:1.56245"
         d="m 64.899697,18.889078 16.211994,16.210431 c 0.910909,0.912472 1.423393,2.148371 1.423393,3.437393 v 22.925846 c 0,1.289023 -0.512484,2.524921 -1.423393,3.43583 L 64.899697,81.112135 c -0.910909,0.910909 -2.14837,1.42183 -3.437393,1.42183 H 38.536458 c -1.289022,0 -2.524921,-0.512484 -3.43583,-1.42183 L 18.888634,64.898578 c -0.910909,-0.910909 -1.423393,-2.146807 -1.423393,-3.43583 V 38.536902 c 0,-1.289022 0.512484,-2.524921 1.423393,-3.437393 L 35.100628,18.889078 c 0.910909,-0.912472 2.146808,-1.423393 3.43583,-1.423393 h 22.925846 c 1.289023,0 2.526484,0.510921 3.437393,1.423393" />
      <path
         id="path342-7"
         style="fill:none;stroke:#304159;stroke-width:3.5327;stroke-linecap:butt;stroke-linejoin:miter;stroke-miterlimit:10;stroke-dasharray:none;stroke-opacity:1"
         d="m 64.899697,18.889078 16.211994,16.210431 c 0.910909,0.912472 1.423393,2.148371 1.423393,3.437393 v 22.925846 c 0,1.289023 -0.512484,2.524921 -1.423393,3.43583 L 64.899697,81.112135 c -0.910909,0.910909 -2.14837,1.42183 -3.437393,1.42183 H 38.536458 c -1.289022,0 -2.524921,-0.512484 -3.43583,-1.42183 L 18.888634,64.898578 c -0.910909,-0.910909 -1.423393,-2.146807 -1.423393,-3.43583 V 38.536902 c 0,-1.289022 0.512484,-2.524921 1.423393,-3.437393 L 35.100628,18.889078 c 0.910909,-0.912472 2.146808,-1.423393 3.43583,-1.423393 h 22.925846 c 1.289023,0 2.526484,0.510921 3.437393,1.423393 z" />
      <path
         id="path346-4"
         style="fill:#ffffff;fill-opacity:1;fill-rule:nonzero;stroke:none;stroke-width:1.56245"
         d="m 43.628799,63.057386 c -1.256211,0 -2.278054,-1.021843 -2.278054,-2.279616 V 41.587744 h -1.479641 c -1.256211,0 -2.278054,-1.023405 -2.278054,-2.279616 0,-1.257773 1.021843,-2.279617 2.278054,-2.279617 h 7.516953 c 1.25621,0 2.278053,1.021844 2.278053,2.279617 0,1.256211 -1.021843,2.279616 -2.278053,2.279616 H 45.906853 V 60.77777 c 0,1.257773 -1.021843,2.279616 -2.278054,2.279616" />
      <path
         id="path350-3"
         style="fill:#304159;fill-opacity:1;fill-rule:nonzero;stroke:none;stroke-width:1.56245"
         d="m 47.387744,36.146351 h -7.516953 c -1.743695,0 -3.160839,1.418706 -3.160839,3.160839 0,1.745258 1.417144,3.162401 3.160839,3.162401 h 0.596857 v 18.308803 c 0,1.742133 1.418705,3.160839 3.162401,3.160839 1.742133,0 3.160839,-1.418706 3.160839,-3.160839 V 42.469591 h 0.596856 c 1.743696,0 3.160839,-1.417143 3.160839,-3.162401 0,-1.742133 -1.417143,-3.160839 -3.160839,-3.160839 m 0,1.76557 c 0.771851,0 1.395269,0.62498 1.395269,1.395269 0,0.773413 -0.623418,1.396831 -1.395269,1.396831 h -2.362426 v 20.074373 c 0,0.770289 -0.624981,1.395269 -1.395269,1.395269 -0.771851,0 -1.396832,-0.62498 -1.396832,-1.395269 V 40.704021 h -2.362426 c -0.771851,0 -1.395269,-0.623418 -1.395269,-1.396831 0,-0.770289 0.623418,-1.395269 1.395269,-1.395269 h 7.516953" />
      <path
         d="m 72.560864,41.587588 h -2.960845 v 6.662291 h 2.960845 z m -5.238899,21.469641 c -1.25621,0 -2.278054,-1.021843 -2.278054,-2.279616 V 39.307971 c 0,-1.257773 1.021844,-2.279616 2.278054,-2.279616 h 5.656074 c 2.282741,0 4.140495,1.857754 4.140495,4.140496 v 7.498203 c 0,2.282741 -1.857754,4.142058 -4.140495,4.142058 h -3.37802 v 7.968501 c 0,1.257773 -1.021843,2.279616 -2.278054,2.279616"
         style="fill:#ffffff;fill-opacity:1;fill-rule:nonzero;stroke:none;stroke-width:1.56245"
         id="path352-4" />
      <path
         d="m 70.482804,42.46881 h 1.193713 v 4.898285 h -1.193713 z m 2.495235,-6.32324 h -5.656074 c -1.743695,0 -3.160838,1.420268 -3.160838,3.162401 v 21.469642 c 0,1.742133 1.417143,3.162401 3.160838,3.162401 1.743696,0 3.160839,-1.420268 3.160839,-3.162401 v -7.087278 h 2.495235 c 2.770226,0 5.02328,-2.251493 5.02328,-5.021719 v -7.499765 c 0,-2.768664 -2.253054,-5.023281 -5.02328,-5.023281 m -4.260805,12.987094 h 4.260805 c 0.257804,0 0.46561,-0.207806 0.46561,-0.464048 v -7.499765 c 0,-0.256242 -0.207806,-0.465611 -0.46561,-0.465611 h -4.260805 v 8.429424 M 72.978039,37.91114 c 1.796819,0 3.25771,1.462454 3.25771,3.257711 v 7.499765 c 0,1.795257 -1.460891,3.256149 -3.25771,3.256149 h -4.260805 v 8.852848 c 0,0.770289 -0.623418,1.396832 -1.395269,1.396832 -0.770288,0 -1.395269,-0.626543 -1.395269,-1.396832 V 39.307971 c 0,-0.770288 0.624981,-1.396831 1.395269,-1.396831 h 5.656074"
         style="fill:#304159;fill-opacity:1;fill-rule:nonzero;stroke:none;stroke-width:1.56245"
         id="path354-6" />
      <path
         d="m 58.091004,41.587588 h -2.960845 v 16.911971 h 2.960845 z m -3.37802,21.469641 c -2.282741,0 -4.138933,-1.857754 -4.138933,-4.140495 V 41.168851 c 0,-2.282742 1.856192,-4.140496 4.138933,-4.140496 h 3.795194 c 2.282741,0 4.138933,1.857754 4.138933,4.140496 v 17.747883 c 0,2.282741 -1.856192,4.140495 -4.138933,4.140495 z"
         style="fill:#ffffff;fill-opacity:1;fill-rule:nonzero;stroke:none;stroke-width:1.56245"
         id="path356-8" />
      <path
         d="m 56.014506,42.46881 h 1.193713 v 15.146402 h -1.193713 z m 2.493672,-6.32324 h -3.795194 c -2.770226,0 -5.02328,2.254617 -5.02328,5.023281 v 17.747883 c 0,2.770226 2.253054,5.02328 5.02328,5.02328 h 3.795194 c 2.768664,0 5.021718,-2.253054 5.021718,-5.02328 V 41.168851 c 0,-2.768664 -2.253054,-5.023281 -5.021718,-5.023281 m -3.795194,23.238337 h 3.795194 c 0.256242,0 0.465611,-0.210931 0.465611,-0.467173 V 41.168851 c 0,-0.256242 -0.209369,-0.465611 -0.465611,-0.465611 h -3.795194 c -0.256242,0 -0.46561,0.209369 -0.46561,0.465611 v 17.747883 c 0,0.256242 0.209368,0.467173 0.46561,0.467173 M 58.508178,37.91114 c 1.795257,0 3.256148,1.462454 3.256148,3.257711 v 17.747883 c 0,1.796819 -1.460891,3.257711 -3.256148,3.257711 h -3.795194 c -1.795256,0 -3.256148,-1.460892 -3.256148,-3.257711 V 41.168851 c 0,-1.795257 1.460892,-3.257711 3.256148,-3.257711 h 3.795194"
         style="fill:#304159;fill-opacity:1;fill-rule:nonzero;stroke:none;stroke-width:1.56245"
         id="path358-0" />
      <path
         id="path362-1"
         style="fill:#ffffff;fill-opacity:1;fill-rule:nonzero;stroke:none;stroke-width:1.56245"
         d="m 28.00585,63.057386 c -2.282741,0 -4.138933,-1.857754 -4.138933,-4.140496 v -4.06706 c 0,-1.257773 1.021843,-2.279616 2.278054,-2.279616 1.25621,0 2.279616,1.021843 2.279616,2.279616 v 3.649886 h 2.959282 V 52.53584 H 28.00585 c -2.282741,0 -4.138933,-1.857755 -4.138933,-4.140496 v -7.226337 c 0,-2.282741 1.856192,-4.140496 4.138933,-4.140496 h 3.795194 c 2.282741,0 4.140496,1.857755 4.140496,4.140496 v 4.093622 c 0,1.257773 -1.023406,2.279617 -2.279617,2.279617 -1.25621,0 -2.278054,-1.021844 -2.278054,-2.279617 v -3.674885 h -2.959282 v 6.390425 h 3.376457 c 2.282741,0 4.140496,1.856192 4.140496,4.138934 v 6.799787 c 0,2.282742 -1.857755,4.140496 -4.140496,4.140496 z" />
      <path
         id="path366-1"
         style="fill:#304159;fill-opacity:1;fill-rule:nonzero;stroke:none;stroke-width:1.56245"
         d="m 28.964101,53.418624 h 1.53589 V 57.61693 H 29.30784 v -2.767101 c 0,-0.515609 -0.123433,-1.001531 -0.343739,-1.431205 M 29.30784,42.468966 h 1.192151 v 2.793663 c 0,0.682791 0.21718,1.314021 0.585919,1.831193 h -1.77807 z m 2.49211,-6.32324 h -3.793632 c -2.770226,0 -5.02328,2.254617 -5.02328,5.023281 v 7.226336 c 0,1.45933 0.626543,2.776476 1.621824,3.692073 -0.967157,0.54217 -1.621824,1.576513 -1.621824,2.762413 v 4.067061 c 0,2.770226 2.253054,5.021718 5.02328,5.021718 h 3.793632 c 2.770226,0 5.024843,-2.251492 5.024843,-5.021718 v -6.799788 c 0,-1.598387 -0.751539,-3.026468 -1.920253,-3.945189 1.12809,-0.48436 1.920253,-1.6062 1.920253,-2.909284 v -4.093622 c 0,-2.768664 -2.254617,-5.023281 -5.024843,-5.023281 m 0,1.76557 c 1.796819,0 3.257711,1.462454 3.257711,3.257711 v 4.093622 c 0,0.771851 -0.624981,1.396831 -1.395269,1.396831 -0.771851,0 -1.396832,-0.62498 -1.396832,-1.396831 v -4.093622 c 0,-0.256242 -0.207806,-0.465611 -0.46561,-0.465611 h -3.793632 c -0.256242,0 -0.46561,0.209369 -0.46561,0.465611 v 7.226336 c 0,0.256242 0.209368,0.465611 0.46561,0.465611 h 3.793632 c 1.796819,0 3.257711,1.460892 3.257711,3.256148 v 6.799788 c 0,1.796819 -1.460892,3.257711 -3.257711,3.257711 h -3.793632 c -1.795256,0 -3.256148,-1.460892 -3.256148,-3.257711 v -4.067061 c 0,-0.770288 0.623418,-1.396831 1.395269,-1.396831 0.770288,0 1.395269,0.626543 1.395269,1.396831 v 4.067061 c 0,0.256242 0.209368,0.46561 0.46561,0.46561 h 3.793632 c 0.257804,0 0.46561,-0.209368 0.46561,-0.46561 v -6.799788 c 0,-0.256242 -0.207806,-0.46561 -0.46561,-0.46561 h -3.793632 c -1.795256,0 -3.256148,-1.45933 -3.256148,-3.256149 v -7.226336 c 0,-1.795257 1.460892,-3.257711 3.256148,-3.257711 h 3.793632" />
    </symbol>
    <symbol
       id="Target-Hover">
      <path
         id="path216"
         style="fill:#5ec5c4;fill-opacity:1;fill-rule:nonzero;stroke:none;stroke-width:1.54025"
         d="M 24.668459,47.367674 C 25.892949,34.678992 35.785902,24.701171 48.460527,23.376546 V 15.299409 C 31.504039,16.722612 17.948398,30.393982 16.67154,47.367674 Z m 61.444743,0 C 84.824022,30.099791 71.00346,16.399156 53.721982,15.257822 v 8.084838 c 12.71159,1.147495 22.975741,11.32401 24.227955,24.025014 z M 16.67154,52.630751 c 1.278398,16.972153 14.832499,30.645063 31.788987,32.068266 V 76.62342 C 35.785902,75.297254 25.892949,65.319434 24.668459,52.630751 Z M 53.721982,84.742144 C 71.005,83.599269 84.825562,69.898634 86.114742,52.630751 H 77.949937 C 76.699263,65.331756 66.435112,75.50827 53.721982,76.658846 Z M 48.458986,98.459722 V 89.977496 C 28.585286,88.53273 12.694644,72.520161 11.396222,52.630751 H 1.540235 v -5.263077 h 9.855987 C 12.694644,27.479805 28.585286,11.467236 48.460527,10.020929 V 1.5402442 h 5.261455 v 8.443719 C 73.926833,11.142241 90.079316,27.173293 91.386979,47.367674 h 7.072776 v 5.263077 H 91.386979 C 90.079316,72.826673 73.926833,88.857725 53.721982,90.014462 v 8.44526 z" />
      <path
         id="path220"
         style="fill:#0e7abf;fill-opacity:1;fill-rule:nonzero;stroke:none;stroke-width:1.54025"
         d="m 18.373504,54.171014 h 4.928764 c 1.791297,12.295915 11.337697,21.917935 23.61802,23.806297 v 5.004313 C 32.047743,80.971581 20.249515,69.065352 18.373504,54.171014 m 60.936463,0 h 5.102811 C 82.518285,69.34568 70.456675,81.298117 55.262221,83.055556 V 78.02968 C 67.591831,76.284562 77.470922,66.485412 79.309967,54.171014 M 18.373504,45.827412 C 20.249515,30.933073 32.047743,19.026844 46.920288,17.016802 v 5.004313 C 34.639965,23.909476 25.093565,33.531496 23.302268,45.827412 Z M 55.262221,21.970286 v -5.027417 c 15.194454,1.75744 27.256064,13.709877 29.150557,28.884543 H 79.309967 C 77.470922,33.514553 67.591831,23.715403 55.262221,21.970286 m 0,-21.970304346875 H 52.181743 50.000765 46.920288 V 3.0805067 8.6146698 C 27.430107,10.709427 11.930685,26.319987 9.9776626,45.827412 H 3.0804737 -3.688812e-6 v 3.080525 2.182552 3.080525 H 3.0804737 9.9776626 C 11.930685,73.678438 27.428567,89.290539 46.918748,91.385296 v 5.534163 3.080525 h 3.080477 2.182518 3.080478 V 96.919459 91.443826 C 75.085093,89.623236 90.840194,73.98033 92.807079,54.171014 h 4.112438 3.080477 V 51.090489 48.907937 45.827412 H 96.919517 92.807079 C 90.840194,26.018096 75.085093,10.37673 55.262221,8.5545996 V 3.0805067 Z M 52.363491,48.817061 v 2.364303 h -2.362726 -0.0015 v -2.364303 h 2.364266 M 50.000765,86.336316 V 75.198677 C 37.033496,74.536365 26.658448,64.085683 26.105502,51.090489 H 15.048128 c 0.566808,19.090013 15.902965,34.524984 34.952637,35.245827 m 2.180978,0.0154 C 71.508658,85.935847 87.163645,70.379196 87.735073,51.090489 H 76.514434 C 75.955328,64.230468 65.349244,74.761243 52.181743,75.211 V 86.351718 M 42.830954,51.181364 h 7.168271 0.0015 v 7.259257 h 2.364267 v -7.259257 h 7.171351 v -2.364303 h -7.171351 v -7.080586 h -2.364267 v 7.080586 h -7.169811 v 2.364303 M 15.048128,48.907937 H 26.105502 C 26.658448,35.912742 37.033496,25.462061 50.000765,24.801288 V 13.66365 C 30.951093,14.382953 15.614936,29.819464 15.048128,48.907937 m 61.466306,0 H 87.735073 C 87.163645,29.62077 71.508658,14.062578 52.181743,13.648248 v 11.140718 c 13.165961,0.448217 23.773585,10.978991 24.332691,24.118971 M 52.181743,3.0805067 v 8.3851893 c 20.529842,0.415871 37.161339,16.952129 37.735848,37.442241 h 7.001926 v 2.182552 H 89.917591 C 89.343082,71.582141 72.711585,88.116859 52.181743,88.53273 v 8.386729 H 49.999225 V 88.517327 C 29.748167,87.796484 13.433958,71.381907 12.86561,51.090489 H 3.0804737 V 48.907937 H 12.86561 C 13.433958,28.616519 29.748167,12.203481 50.000765,11.481098 V 3.0805067 h 2.180978" />
    </symbol>
    <symbol
       id="Target-Normal">
      <path
         d="m 52.363499,51.182145 h -2.364267 v -2.3643 h 2.364267 z m 24.149402,-2.27343 C 75.953795,35.768745 65.347711,25.237965 52.18175,24.789745 v -11.14071 c 19.326917,0.41433 34.980363,15.97098 35.553332,35.25968 z M 52.18175,86.350965 v -11.13918 c 13.165961,-0.44976 23.773586,-10.98208 24.331151,-24.12051 h 11.222181 c -0.572969,19.2887 -16.226415,34.84382 -35.553332,35.25969 m -2.182518,-27.90956 v -7.25926 h -7.169811 v -2.3643 h 7.169811 v -7.08059 h 2.364267 v 7.08059 h 7.169811 v 2.3643 h -7.169811 v 7.25926 z m 0,27.8957 C 30.9511,85.616255 15.613402,70.179745 15.048135,51.091275 h 11.055833 c 0.552947,12.99365 10.929534,23.44433 23.895264,24.10818 z m 0,-72.67421 v 11.13764 c -12.96573,0.66231 -23.342317,11.11299 -23.895264,24.10818 H 15.048135 C 15.613402,29.820245 30.9511,14.383735 49.999232,13.662895 m 39.918367,35.24582 C 89.343091,28.417065 72.711593,11.882355 52.18175,11.466485 v -8.38673 h -2.182518 v 8.40059 c -20.251058,0.72392 -36.565268,17.13696 -37.133615,37.42837 H 3.0804795 v 2.18256 h 9.7851375 c 0.568347,20.29141 16.882557,36.70445 37.133615,37.42684 v 8.40213 h 2.182518 v -8.38673 c 20.529843,-0.41587 37.161341,-16.95213 37.735849,-37.44224 h 7.001922 v -2.18256 z"
         style="fill:#304159;fill-opacity:1;fill-rule:nonzero;stroke:none;stroke-width:1.54024"
         id="path196" />
    </symbol>
    <symbol
       id="Target-Red">
      <path
         id="path224"
         style="fill:#ee4062;fill-opacity:1;fill-rule:nonzero;stroke:none;stroke-width:1.54024"
         d="M 24.668466,47.367694 C 25.891415,34.679009 35.784368,24.70119 48.458992,23.376563 V 15.299428 C 31.502505,16.72263 17.948405,30.395539 16.671547,47.367694 Z m 61.444742,0 C 84.824028,30.099809 71.003464,16.399175 53.721988,15.257841 v 8.084837 c 12.711589,1.147495 22.975737,11.324009 24.226415,24.025016 z m -69.441661,5.263077 c 1.276858,16.972152 14.830958,30.645061 31.787445,32.068264 v -8.0756 C 35.784368,75.297269 25.891415,65.319453 24.668466,52.630771 Z M 53.721988,84.742159 C 71.003464,83.599287 84.824028,69.898653 86.113208,52.630771 H 77.948403 C 76.697725,65.330231 66.435117,75.508289 53.721988,76.658865 Z M 48.458992,98.459738 V 89.977511 C 28.585292,88.53274 12.694651,72.520176 11.39623,52.630771 H 1.5402428 V 47.367694 H 11.39623 C 12.694651,27.479822 28.585292,11.467254 48.458992,10.020948 V 1.5402625 h 5.262996 v 8.443719 C 73.926844,11.142259 90.079319,27.173311 91.386982,47.367694 h 7.072775 v 5.263077 H 91.386982 C 90.080867,72.826684 73.926844,88.857743 53.721988,90.014477 v 8.445261 z" />
      <path
         id="path228"
         style="fill:#0e7abf;fill-opacity:1;fill-rule:nonzero;stroke:none;stroke-width:1.54024"
         d="m 18.371964,54.171031 h 4.930303 c 1.791298,12.295915 11.337697,21.91793 23.616479,23.806296 V 82.98164 C 32.047742,80.971598 20.249515,69.065365 18.371964,54.171031 m 60.936467,0 h 5.102806 C 82.518281,69.345696 70.456673,81.298137 55.262219,83.055572 v -5.02588 C 67.59183,76.284582 77.470922,66.485429 79.308431,54.171031 M 18.371964,45.827436 C 20.249515,30.933093 32.047742,19.026864 46.918746,17.016821 v 5.004313 C 34.639964,23.909496 25.093565,33.531515 23.302267,45.827436 Z M 55.262219,21.970305 v -5.027416 c 15.192915,1.75744 27.256062,13.709875 29.149018,28.884547 H 79.308431 C 77.469386,33.514572 67.59183,23.715422 55.262219,21.970305 m 0,-21.97030275 H 52.181742 49.999224 46.918746 V 3.0805276 8.6146888 C 27.428567,10.709446 11.930687,26.320006 9.9776635,45.827436 H 3.0804752 -2.5e-6 v 3.080517 2.18256 3.080518 H 3.0804752 9.9776635 C 11.930687,73.678458 27.428567,89.290551 46.918746,91.385315 v 5.534163 3.08052 h 3.080478 2.182518 3.080477 v -3.08052 -5.475641 C 75.085097,89.623247 90.840191,73.980346 92.805543,54.171031 H 96.919512 100 v -3.080518 -2.18256 -3.080517 H 96.919512 92.805543 C 90.840191,26.018115 75.083549,10.376749 55.262219,8.5546188 V 3.0805276 Z M 52.36349,51.18138 H 49.999224 V 48.817086 H 52.36349 Z M 49.999224,86.336331 V 75.198697 C 37.033495,74.536376 26.656908,64.085704 26.105502,51.090513 H 15.048129 c 0.565268,19.090009 15.902964,34.524975 34.951095,35.245818 m 2.182518,0.01536 C 71.508656,85.935824 87.1621,70.37917 87.735069,51.090467 H 76.512897 C 75.955327,64.23045 65.347702,74.761225 52.181742,75.210977 v 11.140719 m -9.352329,-35.17035 h 7.169812 v 7.259257 h 2.364266 v -7.259257 h 7.17135 V 48.817051 H 52.36349 v -7.080593 h -2.364266 v 7.080593 h -7.169811 v 2.364295 M 15.048129,48.907918 H 26.105502 C 26.656908,35.912726 37.033495,25.462045 49.999224,24.801273 V 13.663636 C 30.951093,14.382937 15.613397,29.819449 15.048129,48.907918 m 61.464768,0 H 87.735069 C 87.1621,29.620789 71.508656,14.062598 52.181742,13.648267 v 11.140718 c 13.16596,0.448217 23.772049,10.978991 24.331155,24.118968 M 52.181742,3.0805276 v 8.3851874 c 20.52984,0.415872 37.161336,16.952128 37.734305,37.442238 h 7.003465 v 2.18256 H 89.916048 C 89.343079,71.582158 72.711583,88.116871 52.181742,88.532742 v 8.386736 H 49.999224 V 88.517344 C 29.748167,87.7965 13.433958,71.381926 12.86561,51.090513 H 3.0804752 v -2.18256 H 12.86561 C 13.433958,28.616537 29.748167,12.203501 49.999224,11.481117 V 3.0805276 h 2.182518" />
    </symbol>
    <symbol
       id="Target-Yellow">
      <path
         id="path208"
         style="fill:#ffcc1f;fill-opacity:1;fill-rule:nonzero;stroke:none;stroke-width:1.54025"
         d="M 24.667305,47.367692 C 25.891814,34.679009 35.78492,24.701189 48.459746,23.376563 V 15.299427 C 31.502991,16.72263 17.948681,30.393999 16.670263,47.367692 Z m 61.447231,0 C 84.825336,30.099809 71.004566,16.399175 53.722816,15.25784 v 8.084837 c 12.71179,1.147496 22.97609,11.324011 24.22679,24.025015 z M 16.670263,52.630769 C 17.948681,69.60292 31.502991,83.27583 48.459746,84.699033 V 76.623437 C 35.78492,75.297271 25.891814,65.319451 24.667305,52.630769 Z M 53.722816,84.74216 c 17.28175,-1.142875 31.10252,-14.84351 32.39172,-32.111391 h -8.16493 c -1.2507,12.699463 -11.51346,22.877517 -24.22679,24.028093 z m -5.26307,13.717578 V 89.977512 C 28.584193,88.532746 12.693305,72.520178 11.394863,52.630769 H 1.540264 v -5.263077 h 9.854599 C 12.693305,27.479822 28.584193,11.467254 48.459746,10.020947 V 1.540262 h 5.26307 v 8.4437193 c 20.20362,1.1582777 36.3579,17.1893287 37.66404,37.3837107 h 7.07288 v 5.263077 h -7.07288 c -1.30614,20.195921 -17.46042,36.226972 -37.66404,37.383709 v 8.44526 z" />
      <path
         id="path212"
         style="fill:#0e7abf;fill-opacity:1;fill-rule:nonzero;stroke:none;stroke-width:1.54025"
         d="m 18.372251,54.171031 h 4.93038 c 1.789785,12.295915 11.337872,21.917935 23.616849,23.806297 v 5.004313 C 32.048241,80.971598 20.249831,69.065369 18.372251,54.171031 m 60.937399,0 h 5.1029 C 82.51956,69.345697 70.45622,81.298133 55.26307,83.055573 V 78.029696 C 67.59288,76.284579 77.47212,66.485429 79.30965,54.171031 M 18.372251,45.827429 c 1.87758,-14.894338 13.67599,-26.800567 28.547229,-28.81061 v 5.004313 C 34.640503,23.909494 25.092416,33.531514 23.302631,45.827429 Z M 55.26307,21.970304 v -5.027417 c 15.19316,1.75744 27.25649,13.709876 29.14948,28.884542 h -5.1029 C 77.47058,33.514571 67.59133,23.715421 55.26307,21.970304 M 55.26307,0 H 52.18255 50.00001 46.91948 V 3.080525 8.6146879 C 27.428994,10.709445 11.929332,26.320004 9.97628,45.827429 H 3.080525 0 v 3.080525 2.182552 3.080525 H 3.080525 9.97628 c 1.953052,19.507423 17.452714,35.119525 36.9432,37.214281 V 96.919476 100 h 3.08053 2.18254 3.08052 V 96.919476 91.443843 C 75.08471,89.623252 90.8416,73.980347 92.80697,54.171031 H 96.91947 100 v -3.080525 -2.182552 -3.080525 h -3.08053 -4.1125 C 90.8416,26.018113 75.08471,10.376748 55.26307,8.5546177 V 3.080525 Z m -2.90031,48.817079 v 2.364302 h -2.36275 -0.001 v -2.364302 h 2.3643 m -2.3633,37.519252 V 75.198694 C 37.032531,74.536381 26.657322,64.085701 26.104369,51.090506 H 15.046824 c 0.566817,19.090012 15.90321,34.524982 34.953186,35.245825 m 2.18254,0.0154 C 71.50822,85.93586 87.16345,70.379209 87.73489,51.090503 H 76.51407 C 75.95651,64.230485 65.34871,74.76126 52.18255,75.211016 V 86.351735 M 42.83008,51.181381 h 7.16838 10e-4 v 7.259257 h 2.36431 v -7.259257 h 7.17146 v -2.364302 h -7.17146 v -7.080588 h -2.36431 v 7.080588 h -7.16992 v 2.364302 M 15.046288,48.907954 H 26.103983 C 26.656936,35.912759 37.032146,25.462079 49.99961,24.801306 V 13.663669 C 30.950034,14.38297 15.613641,29.819482 15.046824,48.907954 m 61.467256,0 H 87.73489 C 87.16345,29.620788 71.50822,14.062596 52.18255,13.648265 V 24.788984 C 65.34871,25.2372 75.95496,35.767975 76.51408,48.907954 M 52.18255,3.080525 v 8.385189 c 20.52862,0.415871 37.16038,16.952128 37.73489,37.44224 h 7.00203 v 2.182552 h -7.00203 c -0.57451,20.491652 -17.20627,37.02637 -37.73489,37.44224 v 8.38673 H 50.00001 V 88.517343 C 29.747089,87.7965 13.432629,71.381923 12.864273,51.090506 H 3.080525 v -2.182552 h 9.783748 C 13.432629,28.616536 29.747089,12.2035 50.00001,11.481116 V 3.080525 h 2.18254" />
    </symbol>
    <symbol
       id="Target-Orange">
      <path
         id="path200"
         style="fill:#ec9222;fill-opacity:1;fill-rule:nonzero;stroke:none;stroke-width:1.54026"
         d="M 24.667305,47.367691 C 25.891814,34.679008 35.78492,24.701188 48.45974,23.376561 V 15.299427 C 31.502991,16.722629 17.948681,30.393999 16.670263,47.367691 Z m 61.447231,0 C 84.825336,30.099808 71.004566,16.399173 53.722816,15.25784 v 8.084837 c 12.71179,1.147495 22.97609,11.32401 24.22679,24.025014 z M 16.670263,52.630768 C 17.948681,69.60292 31.502991,83.27583 48.45974,84.699033 V 76.623436 C 35.78492,75.29727 25.891814,65.31945 24.667305,52.630768 Z M 53.722816,84.74216 c 17.28175,-1.142875 31.10252,-14.84351 32.39172,-32.111392 h -8.16493 c -1.2507,12.699463 -11.51346,22.877517 -24.22679,24.028093 z M 48.45974,98.45974 V 89.977509 C 28.585733,88.532746 12.694846,72.520177 11.394863,52.630768 H 1.540264 v -5.263077 h 9.854599 C 12.694846,27.479821 28.585733,11.467253 48.45974,10.020946 V 1.5402605 h 5.263076 v 8.44372 c 20.20517,1.1582765 36.35944,17.1893295 37.66558,37.3837105 h 7.07134 v 5.263077 h -7.07134 c -1.30614,20.195922 -17.46041,36.226973 -37.66558,37.383711 v 8.445261 z" />
      <path
         id="path204"
         style="fill:#0e7abf;fill-opacity:1;fill-rule:nonzero;stroke:none;stroke-width:1.54026"
         d="m 18.372251,54.17103 h 4.93038 c 1.789785,12.295916 11.337872,21.917936 23.616845,23.806298 v 5.004313 C 32.048241,80.971598 20.249831,69.065368 18.372251,54.17103 m 60.937409,0 h 5.10289 C 82.51956,69.345697 70.45777,81.298133 55.26308,83.055573 V 78.029696 C 67.59288,76.284579 77.47212,66.485429 79.30966,54.17103 M 18.372251,45.827429 c 1.87758,-14.894338 13.67599,-26.800568 28.547225,-28.81061 v 5.004312 C 34.640503,23.909494 25.092416,33.531513 23.302631,45.827429 Z M 55.26308,21.970303 v -5.027417 c 15.19315,1.75744 27.25648,13.709877 29.14947,28.884543 H 79.30966 C 77.47059,33.51457 67.59133,23.715421 55.26308,21.970303 m 0,-21.97030350000001 H 52.18255 50.000001 46.919476 V 3.0805245 8.6146875 C 27.428994,10.709444 11.930873,26.320004 9.97782,45.827429 H 3.080525 0 v 3.080524 2.182553 3.080524 H 3.080525 9.97782 c 1.953053,19.507424 17.451174,35.11953 36.941656,37.21428 V 96.91948 100 h 3.080525 2.182549 3.08053 V 96.91948 91.44384 C 75.08471,89.62325 90.8416,73.980347 92.80697,54.17103 H 96.91947 100 v -3.080524 -2.182553 -3.080524 h -3.08053 -4.1125 C 90.8416,26.018113 75.08471,10.376747 55.26308,8.5546175 V 3.0805245 Z M 52.36276,48.817079 v 2.364302 h -2.362759 -0.0015 V 48.817079 H 52.3628 M 50.000001,86.336331 V 75.198693 C 37.034071,74.536381 26.657322,64.085701 26.104369,51.090506 H 15.046824 c 0.566817,19.090012 15.904751,34.524982 34.953177,35.245825 m 2.182549,0.0154 C 71.50977,85.93586 87.16345,70.379208 87.73489,51.090502 H 76.51408 C 75.95651,64.230485 65.34871,74.76126 52.18255,75.211016 V 86.351735 M 42.830079,51.181381 h 7.168381 0.0015 v 7.259257 h 2.3643 v -7.259257 h 7.17147 v -2.364302 h -7.17147 v -7.080588 h -2.3643 v 7.080588 h -7.169923 v 2.364302 M 15.046785,48.907953 H 26.10433 C 26.657322,35.912759 37.034071,25.462078 50.000001,24.801306 V 13.663668 C 30.951575,14.38297 15.613641,29.819481 15.046824,48.907953 m 61.467256,0 H 87.73489 C 87.16345,29.620787 71.50977,14.062595 52.18255,13.648264 V 24.788983 C 65.34871,25.2372 75.95497,35.767974 76.51408,48.907953 M 52.18255,3.0805245 v 8.3851885 c 20.52863,0.415871 37.16191,16.952128 37.73489,37.44224 h 7.00203 v 2.182553 H 89.91744 C 89.34446,71.582158 72.71118,88.116876 52.18255,88.532746 V 96.91948 H 50.000001 V 88.517343 C 29.747089,87.7965 13.432629,71.381923 12.864273,51.090506 H 3.080525 v -2.182553 h 9.783748 C 13.432629,28.616535 29.747089,12.203499 50.000001,11.481115 V 3.0805245 h 2.182549" />
    </symbol>
    <symbol
       id="Start-Icon">
      <path
         id="path458"
         style="fill:#0e7abf;fill-opacity:1;fill-rule:nonzero;stroke:none;stroke-width:1.79301"
         d="M 31.086389,79.831993 20.167215,68.910551 66.576394,22.49756 77.497361,33.419002 Z" />
      <path
         id="path462"
         style="fill:#304159;fill-opacity:1;fill-rule:nonzero;stroke:none;stroke-width:1.79301"
         d="M 93.875225,17.040426 80.227154,30.689091 69.30798,19.767649 82.954258,6.1207771 c 3.013979,-3.01411 7.912367,-3.01411 10.92276,-0.00359 1.459476,1.4577462 2.260932,3.3978218 2.260932,5.4616169 0,2.062003 -0.805042,4.003872 -2.262725,5.461618 M 31.085493,79.83289 20.166319,68.911448 66.57729,22.498457 77.498257,33.419899 Z m -4.966521,4.964944 -12.011091,1.091965 1.091917,-12.011614 2.237624,-2.237721 10.919174,10.921442 z M 96.607708,3.3863822 C 92.091222,-1.1303001 84.741847,-1.1285071 80.225361,3.3899683 L 65.214635,18.401348 c -0.0018,0.0018 -0.0018,0.0018 -0.0018,0.0018 -0.0018,0 -0.0018,0.0018 -0.0018,0.0018 L 11.976042,71.642257 c -0.319148,0.319162 -0.516375,0.740528 -0.557613,1.188789 L 10.05398,87.847805 c -0.052,0.571981 0.15061,1.134998 0.557613,1.540226 0.36218,0.363988 0.855246,0.564809 1.364449,0.564809 0.05738,0 0.116543,-0.0018 0.173918,-0.0072 l 15.016105,-1.366301 c 0.450035,-0.03945 0.871382,-0.236682 1.190531,-0.555844 L 32.449941,83.93 c 0,0 0,-0.0018 0.0018,-0.0018 0.0018,-0.0018 0.0018,-0.0018 0.0018,-0.0018 L 96.604122,19.771235 C 98.793336,17.583719 99.99821,14.675399 100,11.578808 100,8.4858045 98.795129,5.5738981 96.607708,3.3863822" />
      <path
         id="path466"
         style="fill:#304159;fill-opacity:1;fill-rule:nonzero;stroke:none;stroke-width:1.79301"
         d="m 9.24589,90.753256 c -0.7548394,-0.754872 -1.9776435,-0.754872 -2.728897,0 l -5.95086012,5.949326 c -0.75483944,0.754872 -0.75483944,1.977729 0,2.730809 0.37652324,0.378332 0.87138232,0.566602 1.36444852,0.566602 0.4948591,0 0.9879252,-0.18827 1.3644485,-0.566602 L 9.24589,93.482272 c 0.7530465,-0.751286 0.7530465,-1.975937 0,-2.729016" />
      <path
         id="path470"
         style="fill:#304159;fill-opacity:1;fill-rule:nonzero;stroke:none;stroke-width:1.79301"
         d="m 91.148121,8.8474619 c -0.753046,-0.7548723 -1.977643,-0.7548723 -2.728897,0 L 76.132016,21.133412 c -0.753047,0.753079 -0.753047,1.975936 0,2.730808 0.376523,0.37654 0.871382,0.563017 1.366241,0.563017 0.493066,0 0.987925,-0.186477 1.364449,-0.563017 L 91.148121,11.576478 c 0.753046,-0.75308 0.753046,-1.9741438 0,-2.7290161" />
    </symbol>
    <symbol
       id="Installation-Icon">
      <path
         id="path474"
         style="fill:#5a5a5a;fill-opacity:1;fill-rule:nonzero;stroke:none;stroke-width:1.30559"
         d="m 6.1994438,59.201597 v 8.236964 c 0,1.955773 1.5849806,3.539453 3.5394417,3.539453 H 90.259553 c 1.955767,0 3.542053,-1.58368 3.542053,-3.539453 v -8.236964 c -29.202026,6.541003 -58.401441,6.541003 -87.6021622,0" />
      <path
         id="path478"
         style="fill:#aaaaaa;fill-opacity:1;fill-rule:nonzero;stroke:none;stroke-width:1.30559"
         d="m 1.4648692,30.574197 v 24.66128 c 0,1.678988 1.1541374,3.139943 2.7887302,3.521175 30.4971666,7.133741 60.9943336,7.133741 91.4915006,0 1.634593,-0.381232 2.790036,-1.842187 2.790036,-3.521175 v -24.66128 c 0,-1.677683 -1.155443,-3.138637 -2.790036,-3.521175 -30.497167,-7.133741 -60.994334,-7.133741 -91.4915006,0 -1.6345928,0.382538 -2.7887302,1.843492 -2.7887302,3.521175" />
      <path
         id="path482"
         style="fill:#5a5a5a;fill-opacity:1;fill-rule:nonzero;stroke:none;stroke-width:1.30559"
         d="m 83.962193,47.847799 c 0,10.355936 -8.394913,18.750876 -18.752122,18.750876 -10.357208,0 -18.752121,-8.39494 -18.752121,-18.750876 0,-10.358547 8.394913,-18.752182 18.752121,-18.752182 10.357209,0 18.752122,8.393635 18.752122,18.752182" />
      <path
         id="path486"
         style="fill:#0e7abf;fill-opacity:1;fill-rule:nonzero;stroke:none;stroke-width:1.30559"
         d="m 77.874118,47.847799 c 0,6.994043 -5.668851,12.662913 -12.664177,12.662913 -6.995326,0 -12.664178,-5.66887 -12.664178,-12.662913 0,-6.995349 5.668852,-12.664218 12.664178,-12.664218 6.995326,0 12.664177,5.668869 12.664177,12.664218" />
      <path
         d="m 12.762882,70.977884 h 15.147401 v 6.753814 H 12.762882 Z"
         style="fill:#5a5a5a;fill-opacity:1;fill-rule:nonzero;stroke:none;stroke-width:1.30559"
         id="path488" />
      <path
         d="m 72.089984,70.977884 h 15.1474 v 6.753814 h -15.1474 z"
         style="fill:#5a5a5a;fill-opacity:1;fill-rule:nonzero;stroke:none;stroke-width:1.30559"
         id="path490" />
      <path
         id="path494"
         style="fill:#ee4062;fill-opacity:1;fill-rule:nonzero;stroke:none;stroke-width:1.30559"
         d="m 94.230883,49.788297 c 0,1.673766 -1.356503,3.028968 -3.030263,3.028968 -1.672455,0 -3.028958,-1.355202 -3.028958,-3.028968 0,-1.67246 1.356503,-3.028968 3.028958,-3.028968 1.67376,0 3.030263,1.356508 3.030263,3.028968" />
      <path
         id="path498"
         style="fill:#304159;fill-opacity:1;fill-rule:nonzero;stroke:none;stroke-width:1.30559"
         d="m 92.336217,61.013363 v 6.414361 c 0,1.145002 -0.930882,2.075888 -2.075881,2.075888 h -3.02243 -0.0013 H 72.0892 72.086589 9.7396686 c -1.1449983,0 -2.0758806,-0.930886 -2.0758806,-2.075888 v -6.414361 c 15.561271,3.342309 31.642165,4.910322 47.683892,4.474255 7.124579,3.987271 16.074366,3.303142 22.535708,-1.899633 4.888111,-0.691962 9.831057,-1.582374 14.452829,-2.574622 M 85.771734,76.25612 H 73.554067 v -3.822766 h 12.217667 z m -59.325796,0 H 14.228271 V 72.433354 H 26.445938 Z M 47.922816,47.837354 c 0,-9.533415 7.755177,-17.287311 17.287255,-17.287311 9.532078,0 17.287255,7.753896 17.287255,17.287311 0,6.238106 -3.320103,11.712443 -8.285244,14.753161 C 62.72032,69.600225 47.922816,61.296676 47.922816,47.837354 M 96.080636,25.617526 C 69.253469,19.341557 36.603392,19.554368 9.7723082,24.292353 c -0.7977126,0.141003 -1.3290858,0.900856 -1.1880826,1.698572 0.1410032,0.796409 0.9008538,1.327784 1.6972604,1.188086 26.439408,-4.670094 58.692588,-4.894655 85.13069,1.289923 0.976578,0.228478 1.658093,1.090167 1.658093,2.096776 v 24.659975 c 0,1.005304 -0.681515,1.866993 -1.658093,2.095471 -4.714469,1.103223 -9.417187,2.026275 -14.146017,2.787433 2.60856,-3.404977 4.160901,-7.661199 4.160901,-12.271235 0,-11.147123 -9.069901,-20.215748 -20.216989,-20.215748 -11.147087,0 -20.216988,9.068625 -20.216988,20.215748 0,5.832068 2.481918,11.092288 6.444369,14.785801 C 36.377525,62.730213 20.626944,61.07342 4.587829,57.321156 3.6112512,57.092678 2.9297357,56.230989 2.9297357,55.225685 V 51.626174 H 24.541089 c 0.809463,0 1.464867,-0.656711 1.464867,-1.466177 0,-0.808159 -0.655404,-1.464871 -1.464867,-1.464871 H 2.9297357 V 44.359263 H 24.541089 c 0.809463,0 1.464867,-0.655406 1.464867,-1.464871 0,-0.80816 -0.655404,-1.464872 -1.464867,-1.464872 H 2.9297357 V 37.094963 H 24.541089 c 0.809463,0 1.464867,-0.655406 1.464867,-1.463565 0,-0.810772 -0.655404,-1.464872 -1.464867,-1.464872 H 2.9297357 V 30.56571 c 0,-1.006609 0.6815155,-1.868298 1.6580933,-2.096776 2.0027678,-0.467402 4.102149,-0.924358 6.239392,-1.355202 0.793796,-0.160588 1.305585,-0.933497 1.146304,-1.72599 C 11.812938,24.593944 11.042643,24.082153 10.247541,24.241435 8.0815752,24.678807 5.9521656,25.140986 3.9193693,25.617526 1.6124001,26.156735 2.2428e-6,28.190843 2.2428e-6,30.56571 v 24.659975 c 0,2.373561 1.6123978572,4.40767 3.9193670572,4.948184 0.2728673,0.06267 0.5444291,0.12142 0.8159908,0.185394 v 7.068461 c 0,2.760016 2.2456067,5.00563 5.0043085,5.00563 h 1.5588684 v 5.287638 c 0,0.809465 0.655404,1.464871 1.464867,1.464871 h 15.147401 c 0.809463,0 1.464866,-0.655406 1.464866,-1.464871 v -5.287638 h 41.248662 v 5.287638 c 0,0.809465 0.655404,1.464871 1.464867,1.464871 h 15.147401 c 0.809463,0 1.464867,-0.655406 1.464867,-1.464871 v -5.287638 h 1.558868 c 2.758702,0 5.004309,-2.245614 5.004309,-5.00563 v -7.068461 c 0.271562,-0.06267 0.544429,-0.122726 0.815991,-0.185394 C 98.387605,59.633355 100,57.599246 100,55.225685 V 30.56571 c 0,-2.374867 -1.612395,-4.408975 -3.919364,-4.948184" />
      <path
         id="path502"
         style="fill:#304159;fill-opacity:1;fill-rule:nonzero;stroke:none;stroke-width:1.30559"
         d="m 89.63705,49.779419 c 0,-0.862995 0.702405,-1.564096 1.564091,-1.564096 0.862992,0 1.564091,0.701101 1.564091,1.564096 0,0.861689 -0.701099,1.564096 -1.564091,1.564096 -0.861686,0 -1.564091,-0.702407 -1.564091,-1.564096 m 6.057916,0 c 0,-2.478009 -2.015824,-4.493839 -4.493825,-4.493839 -2.478001,0 -4.493824,2.01583 -4.493824,4.493839 0,2.476703 2.015823,4.493839 4.493824,4.493839 2.478001,0 4.493825,-2.017136 4.493825,-4.493839" />
      <path
         id="path506"
         style="fill:#304159;fill-opacity:1;fill-rule:nonzero;stroke:none;stroke-width:1.30559"
         d="m 65.20968,61.967097 c 6.728987,0 12.558425,-4.786291 13.860094,-11.380824 0.15667,-0.792492 -0.360342,-1.56279 -1.154138,-1.720767 -0.79249,-0.15667 -1.562785,0.360343 -1.719456,1.154141 -1.031412,5.226275 -5.653184,9.017707 -10.9865,9.017707 -6.174113,0 -11.199311,-5.023908 -11.199311,-11.199347 0,-6.176743 5.025198,-11.199346 11.199311,-11.199346 5.334622,0 9.955088,3.792737 10.9865,9.016401 0.156671,0.793798 0.926966,1.310812 1.719456,1.154141 0.793796,-0.156671 1.310808,-0.926969 1.154138,-1.720767 -1.301669,-6.594533 -7.131107,-11.380824 -13.860094,-11.380824 -7.790427,0 -14.129044,6.339943 -14.129044,14.130395 0,7.790453 6.338617,14.12909 14.129044,14.12909" />
    </symbol>
    <symbol
       id="Cross-Icon">
      <path
         d="m 49.999939,2.212947 c 26.391014,0 47.78704,21.394792 47.78704,47.787885 0,26.391435 -21.396026,47.786226 -47.78704,47.786226 -26.390968,0 -47.7870402,-21.394791 -47.7870402,-47.786226 0,-26.393093 21.3960722,-47.787885 47.7870402,-47.787885"
         style="fill:#ee4062;fill-opacity:1;fill-rule:nonzero;stroke:none;stroke-width:1.62597"
         id="path447" />
      <path
         d="m 49.999939,2.212947 c 26.391014,0 47.78704,21.394792 47.78704,47.787885 0,26.391435 -21.396026,47.786226 -47.78704,47.786226 -26.390968,0 -47.7870402,-21.394791 -47.7870402,-47.786226 0,-26.393093 21.3960722,-47.787885 47.7870402,-47.787885 z"
         style="fill:none;stroke:#304159;stroke-width:4.4259;stroke-linecap:butt;stroke-linejoin:miter;stroke-miterlimit:10;stroke-dasharray:none;stroke-opacity:1"
         id="path451" />
      <path
         d="M 62.210451,50.055773 72.762957,39.599042 c 2.110474,-2.110557 2.110474,-5.728385 0,-7.838896 l -4.372215,-4.37068 c -2.11052,-2.110557 -5.728284,-2.110557 -7.838804,0 L 50.103504,37.838086 39.598194,27.238242 c -2.11052,-2.110511 -5.728283,-2.110511 -7.838757,0 l -4.372215,4.370679 c -2.108907,2.110511 -2.108907,5.729998 0,7.840509 l 10.55246,10.55108 -10.55246,10.552693 c -2.108907,2.11051 -2.108907,5.728338 0,7.838895 l 4.222606,4.221068 c 2.11052,2.110511 5.728283,2.110511 7.837144,0 l 10.60127,-10.503928 10.503696,10.503928 c 2.11052,2.110511 5.728284,2.110511 7.838804,0 l 4.220993,-4.221068 c 2.110473,-2.110557 2.110473,-5.728385 0,-7.838895 z"
         style="fill:#ffffff;fill-opacity:1;fill-rule:nonzero;stroke:none;stroke-width:1.62597"
         id="path455" />
      <path
         d="M 62.210451,50.055773 72.762957,39.599042 c 2.110474,-2.110557 2.110474,-5.728385 0,-7.838896 l -4.372215,-4.37068 c -2.11052,-2.110557 -5.728284,-2.110557 -7.838804,0 L 50.103504,37.838086 39.598194,27.238242 c -2.11052,-2.110511 -5.728283,-2.110511 -7.838757,0 l -4.372215,4.370679 c -2.108907,2.110511 -2.108907,5.729998 0,7.840509 l 10.55246,10.55108 -10.55246,10.552693 c -2.108907,2.11051 -2.108907,5.728338 0,7.838895 l 4.222606,4.221068 c 2.11052,2.110511 5.728283,2.110511 7.837144,0 l 10.60127,-10.503928 10.503696,10.503928 c 2.11052,2.110511 5.728284,2.110511 7.838804,0 l 4.220993,-4.221068 c 2.110473,-2.110557 2.110473,-5.728385 0,-7.838895 z"
         style="fill:none;stroke:#304159;stroke-width:4.4259;stroke-linecap:butt;stroke-linejoin:miter;stroke-miterlimit:10;stroke-dasharray:none;stroke-opacity:1"
         id="path459" />
    </symbol>
    <symbol
       id="Tick-Icon">
      <path
         d="m 49.999435,2.2127363 c 26.391446,0 47.787852,21.3948227 47.787852,47.7879497 0,26.391501 -21.396406,47.786324 -47.787852,47.786324 -26.391441,0 -47.7862198,-21.394823 -47.7862198,-47.786324 0,-26.393127 21.3947788,-47.7879497 47.7862198,-47.7879497"
         style="fill:#5ec5c4;fill-opacity:1;fill-rule:nonzero;stroke:none;stroke-width:1.62599"
         id="path463" />
      <path
         d="m 49.999435,2.2127363 c 26.391446,0 47.787852,21.3948227 47.787852,47.7879497 0,26.391501 -21.396406,47.786324 -47.787852,47.786324 -26.391441,0 -47.7862198,-21.394823 -47.7862198,-47.786324 0,-26.393127 21.3947788,-47.7879497 47.7862198,-47.7879497 z"
         style="fill:none;stroke:#304159;stroke-width:4.42594;stroke-linecap:butt;stroke-linejoin:miter;stroke-miterlimit:10;stroke-dasharray:none;stroke-opacity:1"
         id="path467" />
      <path
         d="M 80.149358,31.76013 75.7787,27.389458 c -2.110538,-2.110541 -5.728368,-2.110541 -7.840527,0 L 42.889797,52.322445 32.060703,41.408774 c -2.110533,-2.110541 -5.728363,-2.110541 -7.838901,0 l -4.370658,4.370672 c -2.110537,2.110537 -2.110537,5.730002 0,7.838912 L 38.99555,72.915651 c 2.110537,2.108914 5.728362,2.108914 7.8389,0 l 4.370658,-4.372295 c 0.209761,-0.208147 0.380482,-0.440631 0.547958,-0.676415 L 80.149358,39.599042 c 2.110538,-2.110537 2.110538,-5.728375 0,-7.838912"
         style="fill:#ffffff;fill-opacity:1;fill-rule:nonzero;stroke:none;stroke-width:1.62599"
         id="path471" />
      <path
         d="M 80.149358,31.76013 75.7787,27.389458 c -2.110538,-2.110541 -5.728368,-2.110541 -7.840527,0 L 42.889797,52.322445 32.060703,41.408774 c -2.110533,-2.110541 -5.728363,-2.110541 -7.838901,0 l -4.370658,4.370672 c -2.110537,2.110537 -2.110537,5.730002 0,7.838912 L 38.99555,72.915651 c 2.110537,2.108914 5.728362,2.108914 7.8389,0 l 4.370658,-4.372295 c 0.209761,-0.208147 0.380482,-0.440631 0.547958,-0.676415 L 80.149358,39.599042 c 2.110538,-2.110537 2.110538,-5.728375 0,-7.838912 z"
         style="fill:none;stroke:#304159;stroke-width:4.42594;stroke-linecap:butt;stroke-linejoin:miter;stroke-miterlimit:10;stroke-dasharray:none;stroke-opacity:1"
         id="path475" />
    </symbol>
  </defs>
  <metadata
     id="metadata159">
    <rdf:RDF>
      <cc:Work
         rdf:about="">
        <dc:format>image/svg+xml</dc:format>
        <dc:type
           rdf:resource="http://purl.org/dc/dcmitype/StillImage" />
        <dc:title></dc:title>
      </cc:Work>
    </rdf:RDF>
  </metadata>
</svg>
